<mxfile host="Electron" modified="2024-05-10T10:18:09.030Z" agent="Mozilla/5.0 (Windows NT 10.0; Win64; x64) AppleWebKit/537.36 (KHTML, like Gecko) draw.io/24.2.5 Chrome/120.0.6099.109 Electron/28.1.0 Safari/537.36" etag="s5HfJECULThuarU8E5kQ" version="24.2.5" type="device">
  <diagram name="Pagina-1" id="2z8MdK_rds_FzZH4PgVI">
    <mxGraphModel dx="-88" dy="365" grid="1" gridSize="10" guides="1" tooltips="1" connect="1" arrows="1" fold="1" page="1" pageScale="1" pageWidth="827" pageHeight="1169" math="0" shadow="0">
      <root>
        <mxCell id="0" />
        <mxCell id="1" parent="0" />
        <UserObject label="" tags="Sfondo" id="kZNqer2ItSsOgNp0ve4C-4">
          <mxCell style="vsdxID=4;fillColor=none;gradientColor=none;shape=stencil(vVHLDsIgEPwajiQU4hfU+h8bu7RELM2CFv9eyMZYjCcP3mZ2Zh/ZEaaPM6wotIqJwgU3N6ZZmKPQ2i0zkksFCTMI09tAOFG4LSPzFaqzomu41wmZ+1Tt0OrB7MD0xE6gc5EoN5qi1vsa1Kmvo1SWkF2UFBIkF5ZmqweaUJY10nqYGiluiOuu3P182P/OKuD9Zuu855T2+mcspcSRmuEJ);strokeColor=#3399ff;strokeWidth=3;points=[[0.5,0,0],[0.5,0.5,0],[0.5,0.5,0],[0.5,0.5,0],[1,0.5,0]];labelBackgroundColor=none;rounded=0;html=1;whiteSpace=wrap;" parent="1" vertex="1">
            <mxGeometry x="1486.5" y="636" width="123" height="82" as="geometry" />
          </mxCell>
        </UserObject>
        <UserObject label="" tags="Sfondo" id="kZNqer2ItSsOgNp0ve4C-5">
          <mxCell style="vsdxID=5;rotation=270;fillColor=#305497;gradientColor=none;shape=stencil(UzV2Ls5ILEhVNTIoLinKz04tz0wpyVA1dlE1MsrMy0gtyiwBslSNXVWNndPyi1LTi/JL81Ig/IJEkEoQKze/DGRCBUSfoYEBSI+RQSUq3w2iOCczD0mxKapaPCpJMJSAC4AMhNvTMnNyIF5Hlkf3K1AIEk7GrgA=);strokeColor=#305497;points=[[0.5,0.67,0],[1,0.67,0],[0.5,0,0]];labelBackgroundColor=none;rounded=0;html=1;whiteSpace=wrap;" parent="1" vertex="1">
            <mxGeometry x="1538" y="628" width="20" height="18" as="geometry" />
          </mxCell>
        </UserObject>
        <UserObject label="" tags="Sfondo" id="kZNqer2ItSsOgNp0ve4C-6">
          <mxCell style="vsdxID=6;fillColor=#305497;gradientColor=none;shape=stencil(nZBLDoAgDERP0z3SIyjew0SURgSD+Lu9kMZoXLhwN9O+tukAlrNpJg1SzDH4QW/URgNYgZTkjA4UkwJUgGXng+6DX1zLfmoymdXo17xh5zmRJ6Q42BWCfc2oJfdAr+Yv+AP9Cb7OJ3H/2JG1HNGz/84klThPVCc=);strokeColor=#305497;points=[[1,0.5,0],[0.5,0,0],[0.5,0.5,0],[0.5,0.5,0]];labelBackgroundColor=none;rounded=0;html=1;whiteSpace=wrap;" parent="1" vertex="1">
            <mxGeometry x="1468" y="676" width="28" height="5" as="geometry" />
          </mxCell>
        </UserObject>
        <UserObject label="&lt;div style=&quot;font-size: 1px&quot;&gt;&lt;font style=&quot;font-size:16.93px;font-family:Calibri;color:#000000;direction:ltr;letter-spacing:0px;line-height:120%;opacity:1&quot;&gt;&lt;br&gt;&lt;/font&gt;&lt;/div&gt;" tags="Sfondo" id="kZNqer2ItSsOgNp0ve4C-11">
          <mxCell style="verticalAlign=middle;align=center;overflow=width;vsdxID=11;fillColor=none;gradientColor=none;shape=stencil(nZBLDoAgDERP0z3SIyjew0SURgSD+Lu9kMZoXLhwN9O+tukAlrNpJg1SzDH4QW/URgNYgZTkjA4UkwJUgGXng+6DX1zLfmoymdXo17xh5zmRJ6Q42BWCfc2oJfdAr+Yv+AP9Cb7OJ3H/2JG1HNGz/84klThPVCc=);strokeColor=none;points=[];labelBackgroundColor=none;rounded=0;html=1;whiteSpace=wrap;" parent="1" vertex="1">
            <mxGeometry x="1460" y="789" width="214" height="28" as="geometry" />
          </mxCell>
        </UserObject>
        <UserObject label="" tags="Sfondo" id="kZNqer2ItSsOgNp0ve4C-28">
          <mxCell style="vsdxID=30;fillColor=none;gradientColor=none;shape=stencil(vVHLDsIgEPwajiQU4hfU+h8bu7RELM2CFv9eyMZYjCcP3mZ2Zh/ZEaaPM6wotIqJwgU3N6ZZmKPQ2i0zkksFCTMI09tAOFG4LSPzFaqzomu41wmZ+1Tt0OrB7MD0xE6gc5EoN5qi1vsa1Kmvo1SWkF2UFBIkF5ZmqweaUJY10nqYGiluiOuu3P182P/OKuD9Zuu855T2+mcspcSRmuEJ);strokeColor=#3399ff;strokeWidth=3;points=[[0.5,0,0],[0.5,0.5,0],[0.5,0.5,0],[0.5,0.5,0],[1,0.5,0]];labelBackgroundColor=none;rounded=0;html=1;whiteSpace=wrap;" parent="1" vertex="1">
            <mxGeometry x="1153" y="638" width="123" height="82" as="geometry" />
          </mxCell>
        </UserObject>
        <UserObject label="" tags="Sfondo" id="kZNqer2ItSsOgNp0ve4C-29">
          <mxCell style="vsdxID=31;rotation=270;fillColor=#305497;gradientColor=none;shape=stencil(UzV2Ls5ILEhVNTIoLinKz04tz0wpyVA1dlE1MsrMy0gtyiwBslSNXVWNndPyi1LTi/JL81Ig/IJEkEoQKze/DGRCBUSfoYEBSI+RQSUq3w2iOCczD0mxKapaPCpJMJSAC4AMhNvTMnNyIF5Hlkf3K1AIEk7GrgA=);strokeColor=#305497;points=[[0.5,0.67,0],[1,0.67,0],[0.5,0,0]];labelBackgroundColor=none;rounded=0;html=1;whiteSpace=wrap;" parent="1" vertex="1">
            <mxGeometry x="1204" y="628" width="20" height="18" as="geometry" />
          </mxCell>
        </UserObject>
        <UserObject label="" tags="Sfondo" id="kZNqer2ItSsOgNp0ve4C-30">
          <mxCell style="vsdxID=32;fillColor=#305497;gradientColor=none;shape=stencil(nZBLDoAgDERP0z3SIyjew0SURgSD+Lu9kMZoXLhwN9O+tukAlrNpJg1SzDH4QW/URgNYgZTkjA4UkwJUgGXng+6DX1zLfmoymdXo17xh5zmRJ6Q42BWCfc2oJfdAr+Yv+AP9Cb7OJ3H/2JG1HNGz/84klThPVCc=);strokeColor=#305497;points=[[1,0.5,0],[0.5,0,0],[0.5,0.5,0],[0.5,0.5,0]];labelBackgroundColor=none;rounded=0;html=1;whiteSpace=wrap;" parent="1" vertex="1">
            <mxGeometry x="1138" y="676" width="28" height="5" as="geometry" />
          </mxCell>
        </UserObject>
        <UserObject label="" tags="Sfondo" id="kZNqer2ItSsOgNp0ve4C-31">
          <mxCell style="vsdxID=33;fillColor=none;gradientColor=none;shape=stencil(vVHLDsIgEPwajiQU4hfU+h8bu7RELM2CFv9eyMZYjCcP3mZ2Zh/ZEaaPM6wotIqJwgU3N6ZZmKPQ2i0zkksFCTMI09tAOFG4LSPzFaqzomu41wmZ+1Tt0OrB7MD0xE6gc5EoN5qi1vsa1Kmvo1SWkF2UFBIkF5ZmqweaUJY10nqYGiluiOuu3P182P/OKuD9Zuu855T2+mcspcSRmuEJ);strokeColor=#3399ff;strokeWidth=3;points=[[0.5,0,0],[0.5,0.5,0],[0.5,0.5,0],[0.5,0.5,0],[1,0.5,0]];labelBackgroundColor=none;rounded=0;html=1;whiteSpace=wrap;" parent="1" vertex="1">
            <mxGeometry x="1482" y="505" width="123" height="82" as="geometry" />
          </mxCell>
        </UserObject>
        <UserObject label="" tags="Sfondo" id="kZNqer2ItSsOgNp0ve4C-32">
          <mxCell style="vsdxID=34;rotation=270;fillColor=#305497;gradientColor=none;shape=stencil(UzV2Ls5ILEhVNTIoLinKz04tz0wpyVA1dlE1MsrMy0gtyiwBslSNXVWNndPyi1LTi/JL81Ig/IJEkEoQKze/DGRCBUSfoYEBSI+RQSUq3w2iOCczD0mxKapaPCpJMJSAC4AMhNvTMnNyIF5Hlkf3K1AIEk7GrgA=);strokeColor=#305497;points=[[0.5,0.67,0],[1,0.67,0],[0.5,0,0]];labelBackgroundColor=none;rounded=0;html=1;whiteSpace=wrap;" parent="1" vertex="1">
            <mxGeometry x="1533" y="496" width="20" height="18" as="geometry" />
          </mxCell>
        </UserObject>
        <UserObject label="" tags="Sfondo" id="kZNqer2ItSsOgNp0ve4C-33">
          <mxCell style="vsdxID=35;fillColor=#305497;gradientColor=none;shape=stencil(nZBLDoAgDERP0z3SIyjew0SURgSD+Lu9kMZoXLhwN9O+tukAlrNpJg1SzDH4QW/URgNYgZTkjA4UkwJUgGXng+6DX1zLfmoymdXo17xh5zmRJ6Q42BWCfc2oJfdAr+Yv+AP9Cb7OJ3H/2JG1HNGz/84klThPVCc=);strokeColor=#305497;points=[[1,0.5,0],[0.5,0,0],[0.5,0.5,0],[0.5,0.5,0]];labelBackgroundColor=none;rounded=0;html=1;whiteSpace=wrap;" parent="1" vertex="1">
            <mxGeometry x="1467" y="544" width="28" height="5" as="geometry" />
          </mxCell>
        </UserObject>
        <UserObject label="&lt;div style=&quot;&quot;&gt;&lt;font style=&quot;font-family: Calibri; color: rgb(0, 0, 0); direction: ltr; letter-spacing: 0px; line-height: 120%; opacity: 1; font-size: 12px;&quot;&gt;coldroommanager&lt;/font&gt;&lt;/div&gt;" tags="Sfondo" id="kZNqer2ItSsOgNp0ve4C-34">
          <mxCell style="verticalAlign=middle;align=center;overflow=width;vsdxID=36;fillColor=none;gradientColor=none;shape=stencil(nZBLDoAgDERP0z3SIyjew0SURgSD+Lu9kMZoXLhwN9O+tukAlrNpJg1SzDH4QW/URgNYgZTkjA4UkwJUgGXng+6DX1zLfmoymdXo17xh5zmRJ6Q42BWCfc2oJfdAr+Yv+AP9Cb7OJ3H/2JG1HNGz/84klThPVCc=);strokeColor=none;points=[];labelBackgroundColor=none;rounded=0;html=1;whiteSpace=wrap;" parent="1" vertex="1">
            <mxGeometry x="1441" y="527" width="214" height="28" as="geometry" />
          </mxCell>
        </UserObject>
        <UserObject label="&lt;div style=&quot;&quot;&gt;&lt;font style=&quot;font-family: Calibri; color: rgb(0, 0, 0); direction: ltr; letter-spacing: 0px; line-height: 120%; opacity: 1;&quot;&gt;&lt;font style=&quot;font-size: 12px;&quot;&gt;ServiceAccessGui&lt;/font&gt;&lt;br&gt;&lt;/font&gt;&lt;/div&gt;" tags="Sfondo" id="kZNqer2ItSsOgNp0ve4C-35">
          <mxCell style="verticalAlign=middle;align=center;overflow=width;vsdxID=37;fillColor=none;gradientColor=none;shape=stencil(nZBLDoAgDERP0z3SIyjew0SURgSD+Lu9kMZoXLhwN9O+tukAlrNpJg1SzDH4QW/URgNYgZTkjA4UkwJUgGXng+6DX1zLfmoymdXo17xh5zmRJ6Q42BWCfc2oJfdAr+Yv+AP9Cb7OJ3H/2JG1HNGz/84klThPVCc=);strokeColor=none;points=[];labelBackgroundColor=none;rounded=0;html=1;whiteSpace=wrap;" parent="1" vertex="1">
            <mxGeometry x="863" y="665" width="90" height="28" as="geometry" />
          </mxCell>
        </UserObject>
        <UserObject label="&lt;div style=&quot;font-size: 1px&quot;&gt;&lt;font style=&quot;font-size:16.93px;font-family:Calibri;color:#000000;direction:ltr;letter-spacing:0px;line-height:120%;opacity:1&quot;&gt;loadaccepted/loadrejected&lt;br&gt;&lt;/font&gt;&lt;/div&gt;" tags="Sfondo" id="kZNqer2ItSsOgNp0ve4C-36">
          <mxCell style="verticalAlign=middle;align=center;overflow=width;vsdxID=41;fillColor=none;gradientColor=none;shape=stencil(nZBLDoAgDERP0z3SIyjew0SURgSD+Lu9kMZoXLhwN9O+tukAlrNpJg1SzDH4QW/URgNYgZTkjA4UkwJUgGXng+6DX1zLfmoymdXo17xh5zmRJ6Q42BWCfc2oJfdAr+Yv+AP9Cb7OJ3H/2JG1HNGz/84klThPVCc=);strokeColor=none;points=[];labelBackgroundColor=none;rounded=0;html=1;whiteSpace=wrap;" parent="1" vertex="1">
            <mxGeometry x="1203" y="531" width="205" height="40" as="geometry" />
          </mxCell>
        </UserObject>
        <UserObject label="&lt;div style=&quot;&quot;&gt;&lt;font style=&quot;font-family: Calibri; color: rgb(0, 0, 0); direction: ltr; letter-spacing: 0px; line-height: 120%; opacity: 1;&quot;&gt;&lt;font style=&quot;font-size: 16px;&quot;&gt;storerequest&lt;/font&gt;&lt;br&gt;&lt;/font&gt;&lt;/div&gt;" tags="Sfondo" id="kZNqer2ItSsOgNp0ve4C-37">
          <mxCell style="verticalAlign=middle;align=center;overflow=width;vsdxID=42;fillColor=none;gradientColor=none;shape=stencil(nZBLDoAgDERP0z3SIyjew0SURgSD+Lu9kMZoXLhwN9O+tukAlrNpJg1SzDH4QW/URgNYgZTkjA4UkwJUgGXng+6DX1zLfmoymdXo17xh5zmRJ6Q42BWCfc2oJfdAr+Yv+AP9Cb7OJ3H/2JG1HNGz/84klThPVCc=);strokeColor=none;points=[];labelBackgroundColor=none;rounded=0;html=1;whiteSpace=wrap;" parent="1" vertex="1">
            <mxGeometry x="1252" y="495" width="164" height="21" as="geometry" />
          </mxCell>
        </UserObject>
        <UserObject label="" tags="Sfondo" id="kZNqer2ItSsOgNp0ve4C-38">
          <mxCell style="vsdxID=43;edgeStyle=none;startArrow=none;endArrow=open;startSize=5;endSize=5;strokeWidth=2;strokeColor=#000000;spacingTop=0;spacingBottom=0;spacingLeft=0;spacingRight=0;verticalAlign=middle;html=1;labelBackgroundColor=#ffffff;rounded=0;exitX=0.062;exitY=0.295;exitDx=0;exitDy=0;exitPerimeter=0;" parent="1" source="kZNqer2ItSsOgNp0ve4C-28" edge="1" target="kZNqer2ItSsOgNp0ve4C-66">
            <mxGeometry relative="1" as="geometry">
              <Array as="points">
                <mxPoint x="1056" y="520" />
              </Array>
              <mxPoint x="1153.6860000000001" y="652.51" as="sourcePoint" />
              <mxPoint x="1030" y="470" as="targetPoint" />
            </mxGeometry>
          </mxCell>
        </UserObject>
        <UserObject label="&lt;div style=&quot;font-size: 1px&quot;&gt;&lt;font style=&quot;font-size:16.93px;font-family:Calibri;color:#000000;direction:ltr;letter-spacing:0px;line-height:120%;opacity:1&quot;&gt;loadDone&lt;br/&gt;&lt;/font&gt;&lt;/div&gt;" tags="Sfondo" id="kZNqer2ItSsOgNp0ve4C-43">
          <mxCell style="verticalAlign=middle;align=center;overflow=width;vsdxID=52;fillColor=none;gradientColor=none;shape=stencil(nZBLDoAgDERP0z3SIyjew0SURgSD+Lu9kMZoXLhwN9O+tukAlrNpJg1SzDH4QW/URgNYgZTkjA4UkwJUgGXng+6DX1zLfmoymdXo17xh5zmRJ6Q42BWCfc2oJfdAr+Yv+AP9Cb7OJ3H/2JG1HNGz/84klThPVCc=);strokeColor=none;points=[];labelBackgroundColor=none;rounded=0;html=1;whiteSpace=wrap;" parent="1" vertex="1">
            <mxGeometry x="1330" y="660" width="164" height="21" as="geometry" />
          </mxCell>
        </UserObject>
        <UserObject label="" tags="Sfondo" id="kZNqer2ItSsOgNp0ve4C-44">
          <mxCell style="vsdxID=53;edgeStyle=none;dashed=1;dashPattern=12.00 6.00;startArrow=none;endArrow=open;startSize=5;endSize=5;strokeWidth=2;strokeColor=#000000;spacingTop=0;spacingBottom=0;spacingLeft=0;spacingRight=0;verticalAlign=middle;html=1;labelBackgroundColor=#ffffff;rounded=0;exitX=0.012;exitY=0.659;exitDx=0;exitDy=0;exitPerimeter=0;entryX=0.987;entryY=1;entryDx=0;entryDy=0;entryPerimeter=0;" parent="1" source="kZNqer2ItSsOgNp0ve4C-4" target="kZNqer2ItSsOgNp0ve4C-52" edge="1">
            <mxGeometry relative="1" as="geometry">
              <Array as="points" />
              <mxPoint x="1478" y="730" as="sourcePoint" />
              <mxPoint x="1257" y="712" as="targetPoint" />
            </mxGeometry>
          </mxCell>
        </UserObject>
        <UserObject label="&lt;div style=&quot;font-size: 1px&quot;&gt;&lt;font style=&quot;font-size:16.93px;font-family:Calibri;color:#000000;direction:ltr;letter-spacing:0px;line-height:120%;opacity:1&quot;&gt;goaway/depositfailed&lt;br&gt;&lt;/font&gt;&lt;/div&gt;" tags="Sfondo" id="kZNqer2ItSsOgNp0ve4C-45">
          <mxCell style="verticalAlign=middle;align=center;overflow=width;vsdxID=54;fillColor=none;gradientColor=none;shape=stencil(nZBLDoAgDERP0z3SIyjew0SURgSD+Lu9kMZoXLhwN9O+tukAlrNpJg1SzDH4QW/URgNYgZTkjA4UkwJUgGXng+6DX1zLfmoymdXo17xh5zmRJ6Q42BWCfc2oJfdAr+Yv+AP9Cb7OJ3H/2JG1HNGz/84klThPVCc=);strokeColor=none;points=[];labelBackgroundColor=none;rounded=0;html=1;whiteSpace=wrap;" parent="1" vertex="1">
            <mxGeometry x="1295" y="691.5" width="164" height="21" as="geometry" />
          </mxCell>
        </UserObject>
        <UserObject label="" tags="Sfondo" id="kZNqer2ItSsOgNp0ve4C-49">
          <mxCell style="vsdxID=64;fillColor=none;gradientColor=none;shape=stencil(vVHLDsIgEPwajiQU4hfU+h8bu7RELM2CFv9eyMZYjCcP3mZ2Zh/ZEaaPM6wotIqJwgU3N6ZZmKPQ2i0zkksFCTMI09tAOFG4LSPzFaqzomu41wmZ+1Tt0OrB7MD0xE6gc5EoN5qi1vsa1Kmvo1SWkF2UFBIkF5ZmqweaUJY10nqYGiluiOuu3P182P/OKuD9Zuu855T2+mcspcSRmuEJ);strokeColor=#f96;strokeWidth=3;points=[[0.5,0,0],[0.5,0.5,0],[0.5,0.5,0],[0.5,0.5,0],[1,0.5,0]];labelBackgroundColor=none;rounded=0;html=1;whiteSpace=wrap;" parent="1" vertex="1">
            <mxGeometry x="839" y="639" width="123" height="82" as="geometry" />
          </mxCell>
        </UserObject>
        <UserObject label="" tags="Sfondo" id="kZNqer2ItSsOgNp0ve4C-50">
          <mxCell style="vsdxID=65;rotation=270;fillColor=#305497;gradientColor=none;shape=stencil(UzV2Ls5ILEhVNTIoLinKz04tz0wpyVA1dlE1MsrMy0gtyiwBslSNXVWNndPyi1LTi/JL81Ig/IJEkEoQKze/DGRCBUSfoYEBSI+RQSUq3w2iOCczD0mxKapaPCpJMJSAC4AMhNvTMnNyIF5Hlkf3K1AIEk7GrgA=);strokeColor=#305497;points=[[0.5,0.67,0],[1,0.67,0],[0.5,0,0]];labelBackgroundColor=none;rounded=0;html=1;whiteSpace=wrap;" parent="1" vertex="1">
            <mxGeometry x="890.5" y="628" width="20" height="18" as="geometry" />
          </mxCell>
        </UserObject>
        <UserObject label="" tags="Sfondo" id="kZNqer2ItSsOgNp0ve4C-51">
          <mxCell style="vsdxID=66;fillColor=#305497;gradientColor=none;shape=stencil(nZBLDoAgDERP0z3SIyjew0SURgSD+Lu9kMZoXLhwN9O+tukAlrNpJg1SzDH4QW/URgNYgZTkjA4UkwJUgGXng+6DX1zLfmoymdXo17xh5zmRJ6Q42BWCfc2oJfdAr+Yv+AP9Cb7OJ3H/2JG1HNGz/84klThPVCc=);strokeColor=#305497;points=[[1,0.5,0],[0.5,0,0],[0.5,0.5,0],[0.5,0.5,0]];labelBackgroundColor=none;rounded=0;html=1;whiteSpace=wrap;" parent="1" vertex="1">
            <mxGeometry x="828" y="677.5" width="28" height="5" as="geometry" />
          </mxCell>
        </UserObject>
        <UserObject label="&lt;div style=&quot;&quot;&gt;&lt;font style=&quot;font-family: Calibri; color: rgb(0, 0, 0); direction: ltr; letter-spacing: 0px; line-height: 120%; opacity: 1; font-size: 12px;&quot;&gt;coldstorageservice&lt;/font&gt;&lt;/div&gt;" tags="Sfondo" id="kZNqer2ItSsOgNp0ve4C-52">
          <mxCell style="verticalAlign=middle;align=center;overflow=width;vsdxID=68;fillColor=none;gradientColor=none;shape=stencil(nZBLDoAgDERP0z3SIyjew0SURgSD+Lu9kMZoXLhwN9O+tukAlrNpJg1SzDH4QW/URgNYgZTkjA4UkwJUgGXng+6DX1zLfmoymdXo17xh5zmRJ6Q42BWCfc2oJfdAr+Yv+AP9Cb7OJ3H/2JG1HNGz/84klThPVCc=);strokeColor=none;points=[];labelBackgroundColor=none;rounded=0;html=1;whiteSpace=wrap;" parent="1" vertex="1">
            <mxGeometry x="1148" y="670" width="130" height="20" as="geometry" />
          </mxCell>
        </UserObject>
        <UserObject label="&lt;div style=&quot;font-size: 1px&quot;&gt;&lt;p style=&quot;text-align:center;margin-left:0;margin-right:0;margin-top:0px;margin-bottom:0px;text-indent:0;vertical-align:middle;direction:ltr;&quot;&gt;&lt;/p&gt;&lt;/div&gt;" tags="Connettore Azure" id="kZNqer2ItSsOgNp0ve4C-54">
          <mxCell style="vsdxID=56;edgeStyle=none;dashed=1;startArrow=none;endArrow=open;startSize=9;endSize=9;strokeWidth=2;strokeColor=#000000;spacingTop=0;spacingBottom=0;spacingLeft=0;spacingRight=0;verticalAlign=middle;html=1;labelBackgroundColor=#ffffff;rounded=0;align=center;exitX=0.024390243902439025;exitY=0.34146341463414637;exitDx=0;exitDy=0;exitPerimeter=0;" parent="1" source="kZNqer2ItSsOgNp0ve4C-31" target="kZNqer2ItSsOgNp0ve4C-29" edge="1">
            <mxGeometry x="0.2272" y="14" relative="1" as="geometry">
              <mxPoint as="offset" />
              <Array as="points">
                <mxPoint x="1208" y="533" />
                <mxPoint x="1205.09" y="637.52" />
              </Array>
            </mxGeometry>
          </mxCell>
        </UserObject>
        <UserObject label="&lt;div style=&quot;font-size: 1px&quot;&gt;&lt;p style=&quot;text-align:center;margin-left:0;margin-right:0;margin-top:0px;margin-bottom:0px;text-indent:0;vertical-align:middle;direction:ltr;&quot;&gt;&lt;/p&gt;&lt;/div&gt;" tags="Connettore Azure" id="kZNqer2ItSsOgNp0ve4C-55">
          <mxCell style="vsdxID=55;edgeStyle=none;startArrow=none;endArrow=open;startSize=9;endSize=9;strokeWidth=2;strokeColor=#000000;spacingTop=0;spacingBottom=0;spacingLeft=0;spacingRight=0;verticalAlign=middle;html=1;labelBackgroundColor=#ffffff;rounded=0;align=center;exitX=0.3008130081300813;exitY=0.036585365853658534;exitDx=0;exitDy=0;exitPerimeter=0;" parent="1" source="kZNqer2ItSsOgNp0ve4C-28" edge="1">
            <mxGeometry relative="1" as="geometry">
              <mxPoint x="94" y="-39" as="offset" />
              <Array as="points">
                <mxPoint x="1190" y="519" />
              </Array>
              <mxPoint x="1498" y="520" as="targetPoint" />
            </mxGeometry>
          </mxCell>
        </UserObject>
        <UserObject label="" tags="Sfondo" id="kZNqer2ItSsOgNp0ve4C-56">
          <mxCell style="vsdxID=13;edgeStyle=none;startArrow=none;endArrow=open;startSize=5;endSize=5;strokeWidth=2;strokeColor=#c00000;spacingTop=0;spacingBottom=0;spacingLeft=0;spacingRight=0;verticalAlign=middle;html=1;labelBackgroundColor=#ffffff;rounded=0;exitX=0.5;exitY=0.67;exitDx=0;exitDy=0;exitPerimeter=0;entryX=0.559;entryY=0.996;entryDx=0;entryDy=0;entryPerimeter=0;" parent="1" source="kZNqer2ItSsOgNp0ve4C-5" target="kZNqer2ItSsOgNp0ve4C-31" edge="1">
            <mxGeometry relative="1" as="geometry">
              <Array as="points" />
              <mxPoint x="1578" y="628" as="sourcePoint" />
              <mxPoint x="1558" y="598" as="targetPoint" />
            </mxGeometry>
          </mxCell>
        </UserObject>
        <mxCell id="kZNqer2ItSsOgNp0ve4C-57" parent="1" vertex="1">
          <mxGeometry x="1909" y="749" as="geometry" />
        </mxCell>
        <UserObject label="" tags="Sfondo" id="kZNqer2ItSsOgNp0ve4C-59">
          <mxCell style="vsdxID=69;edgeStyle=none;startArrow=none;endArrow=open;startSize=5;endSize=5;strokeWidth=2;strokeColor=#000000;spacingTop=0;spacingBottom=0;spacingLeft=0;spacingRight=0;verticalAlign=middle;html=1;labelBackgroundColor=#ffffff;rounded=0;exitX=1.008130081300813;exitY=0.5;exitDx=0;exitDy=0;exitPerimeter=0;entryX=0;entryY=0.6;entryDx=0;entryDy=0;entryPerimeter=0;" parent="1" source="kZNqer2ItSsOgNp0ve4C-49" target="kZNqer2ItSsOgNp0ve4C-30" edge="1">
            <mxGeometry relative="1" as="geometry">
              <mxPoint as="offset" />
              <Array as="points" />
            </mxGeometry>
          </mxCell>
        </UserObject>
        <mxCell id="kZNqer2ItSsOgNp0ve4C-60" parent="1" vertex="1">
          <mxGeometry x="1494" y="571" as="geometry" />
        </mxCell>
        <UserObject label="" tags="Sfondo" id="kZNqer2ItSsOgNp0ve4C-61">
          <mxCell style="vsdxID=45;edgeStyle=none;dashed=1;dashPattern=12.00 6.00;startArrow=none;endArrow=open;startSize=5;endSize=5;strokeWidth=2;strokeColor=#000000;spacingTop=0;spacingBottom=0;spacingLeft=0;spacingRight=0;verticalAlign=middle;html=1;labelBackgroundColor=#ffffff;rounded=0;exitX=0.654;exitY=0.75;exitDx=0;exitDy=0;exitPerimeter=0;entryX=0.114;entryY=0.135;entryDx=0;entryDy=0;entryPerimeter=0;" parent="1" target="kZNqer2ItSsOgNp0ve4C-28" edge="1">
            <mxGeometry relative="1" as="geometry">
              <Array as="points" />
              <mxPoint x="1031.9959999999999" y="461.75" as="sourcePoint" />
              <mxPoint x="1170.6609999999998" y="640.2459999999999" as="targetPoint" />
            </mxGeometry>
          </mxCell>
        </UserObject>
        <mxCell id="kZNqer2ItSsOgNp0ve4C-63" parent="1" vertex="1">
          <mxGeometry x="1265" y="702" as="geometry" />
        </mxCell>
        <UserObject label="" tags="Sfondo" id="kZNqer2ItSsOgNp0ve4C-64">
          <mxCell style="vsdxID=51;edgeStyle=none;startArrow=none;endArrow=open;startSize=5;endSize=5;strokeWidth=2;strokeColor=#000000;spacingTop=0;spacingBottom=0;spacingLeft=0;spacingRight=0;verticalAlign=middle;html=1;labelBackgroundColor=#ffffff;rounded=0;entryX=0.667;entryY=0.827;entryDx=0;entryDy=0;entryPerimeter=0;" parent="1" source="kZNqer2ItSsOgNp0ve4C-52" target="kZNqer2ItSsOgNp0ve4C-6" edge="1">
            <mxGeometry relative="1" as="geometry">
              <Array as="points" />
              <mxPoint x="1448" y="680" as="targetPoint" />
            </mxGeometry>
          </mxCell>
        </UserObject>
        <UserObject label="" tags="Sfondo" id="kZNqer2ItSsOgNp0ve4C-65">
          <mxCell style="vsdxID=1;fillColor=none;gradientColor=none;shape=stencil(vVHLDsIgEPwajiQU4hfU+h8bu7RELM2CFv9eyMZYjCcP3mZ2Zh/ZEaaPM6wotIqJwgU3N6ZZmKPQ2i0zkksFCTMI09tAOFG4LSPzFaqzomu41wmZ+1Tt0OrB7MD0xE6gc5EoN5qi1vsa1Kmvo1SWkF2UFBIkF5ZmqweaUJY10nqYGiluiOuu3P182P/OKuD9Zuu855T2+mcspcSRmuEJ);strokeColor=#3399ff;strokeWidth=3;points=[[0.5,0,0],[0.5,0.5,0],[0.5,0.5,0],[0.5,0.5,0],[1,0.5,0]];labelBackgroundColor=none;rounded=0;html=1;whiteSpace=wrap;" parent="1" vertex="1">
            <mxGeometry x="942" y="386" width="123" height="82" as="geometry" />
          </mxCell>
        </UserObject>
        <UserObject label="&lt;div style=&quot;font-size: 1px&quot;&gt;&lt;br&gt;&lt;/div&gt;" tags="Sfondo" id="kZNqer2ItSsOgNp0ve4C-66">
          <mxCell style="verticalAlign=middle;align=center;overflow=width;vsdxID=10;fillColor=none;gradientColor=none;shape=stencil(nZBLDoAgDERP0z3SIyjew0SURgSD+Lu9kMZoXLhwN9O+tukAlrNpJg1SzDH4QW/URgNYgZTkjA4UkwJUgGXng+6DX1zLfmoymdXo17xh5zmRJ6Q42BWCfc2oJfdAr+Yv+AP9Cb7OJ3H/2JG1HNGz/84klThPVCc=);strokeColor=none;points=[];labelBackgroundColor=none;rounded=0;html=1;whiteSpace=wrap;" parent="1" vertex="1">
            <mxGeometry x="900" y="440" width="214" height="28" as="geometry" />
          </mxCell>
        </UserObject>
        <mxCell id="kZNqer2ItSsOgNp0ve4C-71" value="&lt;font style=&quot;font-size: 16px;&quot;&gt;verifyticket&lt;/font&gt;" style="text;html=1;align=center;verticalAlign=middle;whiteSpace=wrap;rounded=0;" parent="1" vertex="1">
          <mxGeometry x="989.9300000000001" y="516" width="60" height="30" as="geometry" />
        </mxCell>
        <mxCell id="kZNqer2ItSsOgNp0ve4C-73" value="&lt;font style=&quot;font-size: 16px;&quot;&gt;chargetaken/&lt;/font&gt;&lt;div&gt;&lt;font size=&quot;3&quot;&gt;invalidticket&lt;/font&gt;&lt;/div&gt;" style="text;html=1;align=center;verticalAlign=middle;whiteSpace=wrap;rounded=0;" parent="1" vertex="1">
          <mxGeometry x="1093" y="501" width="60" height="30" as="geometry" />
        </mxCell>
        <mxCell id="kZNqer2ItSsOgNp0ve4C-75" value="&lt;font style=&quot;font-size: 16px;&quot;&gt;depositdone/&lt;/font&gt;&lt;div&gt;&lt;span style=&quot;background-color: initial; font-size: 16px;&quot;&gt;depositfailed&lt;/span&gt;&lt;/div&gt;" style="text;html=1;align=center;verticalAlign=middle;whiteSpace=wrap;rounded=0;" parent="1" vertex="1">
          <mxGeometry x="1558" y="594" width="92" height="34" as="geometry" />
        </mxCell>
        <UserObject label="&lt;div style=&quot;font-size: 1px&quot;&gt;&lt;p style=&quot;text-align:center;margin-left:0;margin-right:0;margin-top:0px;margin-bottom:0px;text-indent:0;vertical-align:middle;direction:ltr;&quot;&gt;&lt;/p&gt;&lt;/div&gt;" tags="Connettore Azure" id="kZNqer2ItSsOgNp0ve4C-78">
          <mxCell style="vsdxID=55;edgeStyle=none;startArrow=none;endArrow=open;startSize=9;endSize=9;strokeWidth=2;strokeColor=#000000;spacingTop=0;spacingBottom=0;spacingLeft=0;spacingRight=0;verticalAlign=middle;html=1;labelBackgroundColor=#ffffff;rounded=0;align=center;entryX=0.798;entryY=-0.151;entryDx=0;entryDy=0;entryPerimeter=0;exitX=0.31;exitY=0.024;exitDx=0;exitDy=0;exitPerimeter=0;" parent="1" source="kZNqer2ItSsOgNp0ve4C-31" edge="1">
            <mxGeometry relative="1" as="geometry">
              <mxPoint x="94" y="-39" as="offset" />
              <Array as="points">
                <mxPoint x="1358" y="420" />
              </Array>
              <mxPoint x="1510" y="485.23" as="sourcePoint" />
              <mxPoint x="1062.7720000000002" y="420.00199999999995" as="targetPoint" />
            </mxGeometry>
          </mxCell>
        </UserObject>
        <mxCell id="kZNqer2ItSsOgNp0ve4C-79" value="&lt;font style=&quot;font-size: 16px;&quot;&gt;expiredticket&lt;/font&gt;" style="text;html=1;align=center;verticalAlign=middle;whiteSpace=wrap;rounded=0;" parent="1" vertex="1">
          <mxGeometry x="1368" y="356" width="60" height="30" as="geometry" />
        </mxCell>
        <UserObject label="" tags="Sfondo" id="kZNqer2ItSsOgNp0ve4C-84">
          <mxCell style="vsdxID=13;edgeStyle=none;startArrow=none;endArrow=open;startSize=5;endSize=5;strokeWidth=2;strokeColor=#c00000;spacingTop=0;spacingBottom=0;spacingLeft=0;spacingRight=0;verticalAlign=middle;html=1;labelBackgroundColor=#ffffff;rounded=0;exitX=0.603;exitY=-0.004;exitDx=0;exitDy=0;exitPerimeter=0;" parent="1" source="kZNqer2ItSsOgNp0ve4C-65" edge="1">
            <mxGeometry relative="1" as="geometry">
              <Array as="points">
                <mxPoint x="1548" y="386" />
              </Array>
              <mxPoint x="1018" y="380" as="sourcePoint" />
              <mxPoint x="1548" y="500" as="targetPoint" />
            </mxGeometry>
          </mxCell>
        </UserObject>
        <mxCell id="kZNqer2ItSsOgNp0ve4C-86" value="&lt;font style=&quot;font-size: 16px;&quot;&gt;generateticket&lt;/font&gt;" style="text;html=1;align=center;verticalAlign=middle;whiteSpace=wrap;rounded=0;" parent="1" vertex="1">
          <mxGeometry x="1193" y="390" width="72" height="30" as="geometry" />
        </mxCell>
        <mxCell id="kZNqer2ItSsOgNp0ve4C-87" value="ticketmanager" style="text;html=1;align=center;verticalAlign=middle;whiteSpace=wrap;rounded=0;" parent="1" vertex="1">
          <mxGeometry x="973.5" y="408" width="60" height="30" as="geometry" />
        </mxCell>
        <mxCell id="kZNqer2ItSsOgNp0ve4C-88" value="&lt;font style=&quot;font-size: 16px;&quot;&gt;getweight&lt;/font&gt;" style="text;html=1;align=center;verticalAlign=middle;whiteSpace=wrap;rounded=0;" parent="1" vertex="1">
          <mxGeometry x="1368" y="572" width="60" height="30" as="geometry" />
        </mxCell>
        <UserObject label="&lt;div style=&quot;font-size: 1px&quot;&gt;&lt;p style=&quot;text-align:center;margin-left:0;margin-right:0;margin-top:0px;margin-bottom:0px;text-indent:0;vertical-align:middle;direction:ltr;&quot;&gt;&lt;/p&gt;&lt;/div&gt;" tags="Connettore Azure" id="kZNqer2ItSsOgNp0ve4C-89">
          <mxCell style="vsdxID=55;edgeStyle=none;startArrow=none;endArrow=open;startSize=9;endSize=9;strokeWidth=2;strokeColor=#000000;spacingTop=0;spacingBottom=0;spacingLeft=0;spacingRight=0;verticalAlign=middle;html=1;labelBackgroundColor=#ffffff;rounded=0;align=center;exitX=0.745;exitY=0.059;exitDx=0;exitDy=0;exitPerimeter=0;" parent="1" source="kZNqer2ItSsOgNp0ve4C-28" edge="1">
            <mxGeometry relative="1" as="geometry">
              <mxPoint x="94" y="-39" as="offset" />
              <Array as="points">
                <mxPoint x="1318" y="580" />
              </Array>
              <mxPoint x="1398" y="620" as="sourcePoint" />
              <mxPoint x="1508" y="580" as="targetPoint" />
            </mxGeometry>
          </mxCell>
        </UserObject>
        <UserObject label="&lt;div style=&quot;font-size: 1px&quot;&gt;&lt;p style=&quot;text-align:center;margin-left:0;margin-right:0;margin-top:0px;margin-bottom:0px;text-indent:0;vertical-align:middle;direction:ltr;&quot;&gt;&lt;/p&gt;&lt;/div&gt;" tags="Connettore Azure" id="kZNqer2ItSsOgNp0ve4C-91">
          <mxCell style="vsdxID=56;edgeStyle=none;dashed=1;startArrow=none;endArrow=open;startSize=9;endSize=9;strokeWidth=2;strokeColor=#000000;spacingTop=0;spacingBottom=0;spacingLeft=0;spacingRight=0;verticalAlign=middle;html=1;labelBackgroundColor=#ffffff;rounded=0;align=center;exitX=0.024390243902439025;exitY=0.34146341463414637;exitDx=0;exitDy=0;exitPerimeter=0;" parent="1" edge="1">
            <mxGeometry relative="1" as="geometry">
              <mxPoint x="-25" y="13" as="offset" />
              <Array as="points">
                <mxPoint x="1468" y="650" />
              </Array>
              <mxPoint x="1508" y="581" as="sourcePoint" />
              <mxPoint x="1258" y="650" as="targetPoint" />
            </mxGeometry>
          </mxCell>
        </UserObject>
        <mxCell id="kZNqer2ItSsOgNp0ve4C-92" value="&lt;font style=&quot;font-size: 16px;&quot;&gt;currentweight&lt;/font&gt;" style="text;html=1;align=center;verticalAlign=middle;whiteSpace=wrap;rounded=0;" parent="1" vertex="1">
          <mxGeometry x="1356" y="628" width="60" height="30" as="geometry" />
        </mxCell>
        <UserObject label="&lt;div style=&quot;font-size: 1px&quot;&gt;&lt;p style=&quot;text-align:center;margin-left:0;margin-right:0;margin-top:0px;margin-bottom:0px;text-indent:0;vertical-align:middle;direction:ltr;&quot;&gt;&lt;/p&gt;&lt;/div&gt;" tags="Connettore Azure" id="kZNqer2ItSsOgNp0ve4C-94">
          <mxCell style="vsdxID=56;edgeStyle=none;dashed=1;startArrow=none;endArrow=open;startSize=9;endSize=9;strokeWidth=2;strokeColor=#000000;spacingTop=0;spacingBottom=0;spacingLeft=0;spacingRight=0;verticalAlign=middle;html=1;labelBackgroundColor=#ffffff;rounded=0;align=center;entryX=0.172;entryY=0.119;entryDx=0;entryDy=0;entryPerimeter=0;exitX=1.006;exitY=0.641;exitDx=0;exitDy=0;exitPerimeter=0;" parent="1" source="kZNqer2ItSsOgNp0ve4C-65" target="kZNqer2ItSsOgNp0ve4C-31" edge="1">
            <mxGeometry relative="1" as="geometry">
              <mxPoint x="-25" y="13" as="offset" />
              <Array as="points">
                <mxPoint x="1358" y="440" />
              </Array>
              <mxPoint x="1059" y="448" as="sourcePoint" />
              <mxPoint x="1359" y="458" as="targetPoint" />
            </mxGeometry>
          </mxCell>
        </UserObject>
        <mxCell id="kZNqer2ItSsOgNp0ve4C-96" value="&lt;font style=&quot;font-size: 16px;&quot;&gt;ticket&lt;/font&gt;&lt;div&gt;&lt;br&gt;&lt;/div&gt;" style="text;html=1;align=center;verticalAlign=middle;whiteSpace=wrap;rounded=0;" parent="1" vertex="1">
          <mxGeometry x="1185" y="445" width="60" height="30" as="geometry" />
        </mxCell>
        <UserObject label="" tags="Sfondo" id="kZNqer2ItSsOgNp0ve4C-97">
          <mxCell style="vsdxID=4;fillColor=none;gradientColor=none;shape=stencil(vVHLDsIgEPwajiQU4hfU+h8bu7RELM2CFv9eyMZYjCcP3mZ2Zh/ZEaaPM6wotIqJwgU3N6ZZmKPQ2i0zkksFCTMI09tAOFG4LSPzFaqzomu41wmZ+1Tt0OrB7MD0xE6gc5EoN5qi1vsa1Kmvo1SWkF2UFBIkF5ZmqweaUJY10nqYGiluiOuu3P182P/OKuD9Zuu855T2+mcspcSRmuEJ);strokeColor=#4c9141;strokeWidth=3;points=[[0.5,0,0],[0.5,0.5,0],[0.5,0.5,0],[0.5,0.5,0],[1,0.5,0]];labelBackgroundColor=none;rounded=0;html=1;whiteSpace=wrap;" parent="1" vertex="1">
            <mxGeometry x="1198" y="890" width="123" height="82" as="geometry" />
          </mxCell>
        </UserObject>
        <UserObject label="" tags="Sfondo" id="kZNqer2ItSsOgNp0ve4C-98">
          <mxCell style="vsdxID=5;rotation=270;fillColor=#305497;gradientColor=none;shape=stencil(UzV2Ls5ILEhVNTIoLinKz04tz0wpyVA1dlE1MsrMy0gtyiwBslSNXVWNndPyi1LTi/JL81Ig/IJEkEoQKze/DGRCBUSfoYEBSI+RQSUq3w2iOCczD0mxKapaPCpJMJSAC4AMhNvTMnNyIF5Hlkf3K1AIEk7GrgA=);strokeColor=#305497;points=[[0.5,0.67,0],[1,0.67,0],[0.5,0,0]];labelBackgroundColor=none;rounded=0;html=1;whiteSpace=wrap;" parent="1" vertex="1">
            <mxGeometry x="1245" y="880" width="20" height="18" as="geometry" />
          </mxCell>
        </UserObject>
        <UserObject label="" tags="Sfondo" id="kZNqer2ItSsOgNp0ve4C-99">
          <mxCell style="vsdxID=6;fillColor=#305497;gradientColor=none;shape=stencil(nZBLDoAgDERP0z3SIyjew0SURgSD+Lu9kMZoXLhwN9O+tukAlrNpJg1SzDH4QW/URgNYgZTkjA4UkwJUgGXng+6DX1zLfmoymdXo17xh5zmRJ6Q42BWCfc2oJfdAr+Yv+AP9Cb7OJ3H/2JG1HNGz/84klThPVCc=);strokeColor=#305497;points=[[1,0.5,0],[0.5,0,0],[0.5,0.5,0],[0.5,0.5,0]];labelBackgroundColor=none;rounded=0;html=1;whiteSpace=wrap;" parent="1" vertex="1">
            <mxGeometry x="1182" y="928.5" width="28" height="5" as="geometry" />
          </mxCell>
        </UserObject>
        <mxCell id="kZNqer2ItSsOgNp0ve4C-100" value="basicrobot" style="text;html=1;align=center;verticalAlign=middle;whiteSpace=wrap;rounded=0;" parent="1" vertex="1">
          <mxGeometry x="1235" y="920" width="60" height="30" as="geometry" />
        </mxCell>
        <UserObject label="" tags="Sfondo" id="kZNqer2ItSsOgNp0ve4C-101">
          <mxCell style="vsdxID=43;edgeStyle=none;startArrow=none;endArrow=open;startSize=5;endSize=5;strokeWidth=2;strokeColor=#000000;spacingTop=0;spacingBottom=0;spacingLeft=0;spacingRight=0;verticalAlign=middle;html=1;labelBackgroundColor=#ffffff;rounded=0;exitX=0.426;exitY=1.015;exitDx=0;exitDy=0;exitPerimeter=0;entryX=0.292;entryY=0.039;entryDx=0;entryDy=0;entryPerimeter=0;" parent="1" target="kZNqer2ItSsOgNp0ve4C-97" edge="1" source="kZNqer2ItSsOgNp0ve4C-4">
            <mxGeometry relative="1" as="geometry">
              <Array as="points">
                <mxPoint x="1538.5" y="753" />
                <mxPoint x="1393.5" y="753" />
                <mxPoint x="1233.5" y="753" />
              </Array>
              <mxPoint x="1538.5" y="733" as="sourcePoint" />
              <mxPoint x="1234" y="890" as="targetPoint" />
            </mxGeometry>
          </mxCell>
        </UserObject>
        <UserObject label="" tags="Sfondo" id="kZNqer2ItSsOgNp0ve4C-102">
          <mxCell style="vsdxID=43;edgeStyle=none;startArrow=none;endArrow=open;startSize=5;endSize=5;strokeWidth=2;strokeColor=#000000;spacingTop=0;spacingBottom=0;spacingLeft=0;spacingRight=0;verticalAlign=middle;html=1;labelBackgroundColor=#ffffff;rounded=0;entryX=0.874;entryY=0.129;entryDx=0;entryDy=0;entryPerimeter=0;" parent="1" target="kZNqer2ItSsOgNp0ve4C-97" edge="1">
            <mxGeometry relative="1" as="geometry">
              <Array as="points">
                <mxPoint x="1560.39" y="901.3" />
              </Array>
              <mxPoint x="1560.7244986979167" y="718" as="sourcePoint" />
              <mxPoint x="1375.28" y="901" as="targetPoint" />
            </mxGeometry>
          </mxCell>
        </UserObject>
        <UserObject label="" tags="Sfondo" id="kZNqer2ItSsOgNp0ve4C-103">
          <mxCell style="vsdxID=53;edgeStyle=none;dashed=1;dashPattern=12.00 6.00;startArrow=none;endArrow=open;startSize=5;endSize=5;strokeWidth=2;strokeColor=#000000;spacingTop=0;spacingBottom=0;spacingLeft=0;spacingRight=0;verticalAlign=middle;html=1;labelBackgroundColor=#ffffff;rounded=0;entryX=0.679;entryY=0.977;entryDx=0;entryDy=0;entryPerimeter=0;exitX=0.994;exitY=0.286;exitDx=0;exitDy=0;exitPerimeter=0;" parent="1" source="kZNqer2ItSsOgNp0ve4C-97" target="kZNqer2ItSsOgNp0ve4C-4" edge="1">
            <mxGeometry relative="1" as="geometry">
              <Array as="points">
                <mxPoint x="1570" y="913" />
              </Array>
              <mxPoint x="1320" y="926" as="sourcePoint" />
              <mxPoint x="1700" y="720" as="targetPoint" />
            </mxGeometry>
          </mxCell>
        </UserObject>
        <UserObject label="" tags="Sfondo" id="kZNqer2ItSsOgNp0ve4C-104">
          <mxCell style="vsdxID=53;edgeStyle=none;dashed=1;dashPattern=12.00 6.00;startArrow=none;endArrow=open;startSize=5;endSize=5;strokeWidth=2;strokeColor=#000000;spacingTop=0;spacingBottom=0;spacingLeft=0;spacingRight=0;verticalAlign=middle;html=1;labelBackgroundColor=#ffffff;rounded=0;entryX=0.503;entryY=1.015;entryDx=0;entryDy=0;entryPerimeter=0;exitX=0.388;exitY=0.023;exitDx=0;exitDy=0;exitPerimeter=0;" parent="1" target="kZNqer2ItSsOgNp0ve4C-4" edge="1" source="kZNqer2ItSsOgNp0ve4C-97">
            <mxGeometry relative="1" as="geometry">
              <Array as="points">
                <mxPoint x="1246" y="770" />
                <mxPoint x="1548" y="770" />
              </Array>
              <mxPoint x="1240" y="880" as="sourcePoint" />
              <mxPoint x="1400" y="850" as="targetPoint" />
            </mxGeometry>
          </mxCell>
        </UserObject>
        <mxCell id="kZNqer2ItSsOgNp0ve4C-105" value="&lt;font style=&quot;font-size: 16px;&quot;&gt;engage&lt;/font&gt;" style="text;html=1;align=center;verticalAlign=middle;whiteSpace=wrap;rounded=0;" parent="1" vertex="1">
          <mxGeometry x="1356" y="726.5" width="60" height="30" as="geometry" />
        </mxCell>
        <mxCell id="kZNqer2ItSsOgNp0ve4C-106" value="&lt;font style=&quot;font-size: 16px;&quot;&gt;R:engagedone/engagerefused&lt;/font&gt;" style="text;html=1;align=center;verticalAlign=middle;whiteSpace=wrap;rounded=0;" parent="1" vertex="1">
          <mxGeometry x="1305" y="774" width="233" height="20" as="geometry" />
        </mxCell>
        <mxCell id="kZNqer2ItSsOgNp0ve4C-108" value="&lt;font style=&quot;font-size: 16px;&quot;&gt;moverobot&lt;/font&gt;" style="text;html=1;align=center;verticalAlign=middle;whiteSpace=wrap;rounded=0;" parent="1" vertex="1">
          <mxGeometry x="1416" y="873" width="60" height="30" as="geometry" />
        </mxCell>
        <mxCell id="kZNqer2ItSsOgNp0ve4C-109" value="&lt;font style=&quot;font-size: 16px;&quot;&gt;moverobotdone/moverobotfailed&lt;/font&gt;" style="text;html=1;align=center;verticalAlign=middle;whiteSpace=wrap;rounded=0;" parent="1" vertex="1">
          <mxGeometry x="1330" y="918" width="252" height="30" as="geometry" />
        </mxCell>
        <mxCell id="kZNqer2ItSsOgNp0ve4C-111" value="transporttrolley" style="text;html=1;align=center;verticalAlign=middle;whiteSpace=wrap;rounded=0;" parent="1" vertex="1">
          <mxGeometry x="1528" y="661.5" width="60" height="30" as="geometry" />
        </mxCell>
        <UserObject label="" tags="Sfondo" id="kZNqer2ItSsOgNp0ve4C-129">
          <mxCell style="vsdxID=16;fillColor=none;gradientColor=none;shape=stencil(vVHLDsIgEPwajiQU4hfU+h8bu7RELM2CFv9eyMZYjCcP3mZ2Zh/ZEaaPM6wotIqJwgU3N6ZZmKPQ2i0zkksFCTMI09tAOFG4LSPzFaqzomu41wmZ+1Tt0OrB7MD0xE6gc5EoN5qi1vsa1Kmvo1SWkF2UFBIkF5ZmqweaUJY10nqYGiluiOuu3P182P/OKuD9Zuu855T2+mcspcSRmuEJ);strokeColor=#3399ff;strokeWidth=3;points=[[0.5,0,0],[0.5,0.5,0],[0.5,0.5,0],[0.5,0.5,0],[1,0.5,0]];labelBackgroundColor=none;rounded=0;html=1;whiteSpace=wrap;" parent="1" vertex="1">
            <mxGeometry x="961" y="818" width="71" height="47" as="geometry" />
          </mxCell>
        </UserObject>
        <UserObject label="" tags="Sfondo" id="kZNqer2ItSsOgNp0ve4C-130">
          <mxCell style="vsdxID=17;rotation=270;fillColor=#305497;gradientColor=none;shape=stencil(UzV2Ls5ILEhVNTIoLinKz04tz0wpyVA1dlE1MsrMy0gtyiwBslSNXVWNndPyi1LTi/JL81Ig/IJEkEoQKze/DGRCBUSfoYEBSI+RQSUq3w2iOCczD0mxKapaPCpJMJSAC4AMhNvTMnNyIF5Hlkf3K1AIEk7GrgA=);strokeColor=#305497;points=[[0.5,0.67,0],[1,0.67,0],[0.5,0,0]];labelBackgroundColor=none;rounded=0;html=1;whiteSpace=wrap;" parent="1" vertex="1">
            <mxGeometry x="991" y="813" width="12" height="11" as="geometry" />
          </mxCell>
        </UserObject>
        <UserObject label="" tags="Sfondo" id="kZNqer2ItSsOgNp0ve4C-131">
          <mxCell style="vsdxID=18;fillColor=#305497;gradientColor=none;shape=stencil(nZBLDoAgDERP0z3SIyjew0SURgSD+Lu9kMZoXLhwN9O+tukAlrNpJg1SzDH4QW/URgNYgZTkjA4UkwJUgGXng+6DX1zLfmoymdXo17xh5zmRJ6Q42BWCfc2oJfdAr+Yv+AP9Cb7OJ3H/2JG1HNGz/84klThPVCc=);strokeColor=#305497;points=[[1,0.5,0],[0.5,0,0],[0.5,0.5,0],[0.5,0.5,0]];labelBackgroundColor=none;rounded=0;html=1;whiteSpace=wrap;" parent="1" vertex="1">
            <mxGeometry x="953" y="841" width="16" height="3" as="geometry" />
          </mxCell>
        </UserObject>
        <UserObject label="&lt;div style=&quot;&quot;&gt;&lt;font style=&quot;font-family: Calibri; color: rgb(0, 0, 0); direction: ltr; letter-spacing: 0px; line-height: 120%; opacity: 1;&quot;&gt;&lt;font style=&quot;font-size: 14px;&quot;&gt;QActor di&lt;/font&gt;&lt;/font&gt;&lt;/div&gt;&lt;div style=&quot;&quot;&gt;&lt;font style=&quot;font-family: Calibri; color: rgb(0, 0, 0); direction: ltr; letter-spacing: 0px; line-height: 120%; opacity: 1;&quot;&gt;&lt;font size=&quot;3&quot; style=&quot;&quot;&gt;&amp;nbsp;ctxcoldstorageservice&lt;/font&gt;&lt;br&gt;&lt;/font&gt;&lt;/div&gt;" tags="Sfondo" id="kZNqer2ItSsOgNp0ve4C-132">
          <mxCell style="verticalAlign=middle;align=center;overflow=width;vsdxID=19;fillColor=none;gradientColor=none;shape=stencil(nZBLDoAgDERP0z3SIyjew0SURgSD+Lu9kMZoXLhwN9O+tukAlrNpJg1SzDH4QW/URgNYgZTkjA4UkwJUgGXng+6DX1zLfmoymdXo17xh5zmRJ6Q42BWCfc2oJfdAr+Yv+AP9Cb7OJ3H/2JG1HNGz/84klThPVCc=);strokeColor=none;points=[];labelBackgroundColor=none;rounded=0;html=1;whiteSpace=wrap;" parent="1" vertex="1">
            <mxGeometry x="1024" y="822.5" width="151" height="37.5" as="geometry" />
          </mxCell>
        </UserObject>
        <UserObject label="" tags="Sfondo" id="kZNqer2ItSsOgNp0ve4C-133">
          <mxCell style="vsdxID=20;edgeStyle=none;startArrow=none;endArrow=open;startSize=5;endSize=5;strokeWidth=2;strokeColor=#c00000;spacingTop=0;spacingBottom=0;spacingLeft=0;spacingRight=0;verticalAlign=middle;html=1;labelBackgroundColor=#ffffff;rounded=0;" parent="1" edge="1">
            <mxGeometry relative="1" as="geometry">
              <mxPoint as="offset" />
              <Array as="points" />
              <mxPoint x="959" y="892" as="sourcePoint" />
              <mxPoint x="1031" y="892" as="targetPoint" />
            </mxGeometry>
          </mxCell>
        </UserObject>
        <UserObject label="&lt;div style=&quot;font-size: 1px&quot;&gt;&lt;font style=&quot;font-size:16.93px;font-family:Calibri;color:#000000;direction:ltr;letter-spacing:0px;line-height:120%;opacity:1&quot;&gt;Dispatch&lt;br/&gt;&lt;/font&gt;&lt;/div&gt;" tags="Sfondo" id="kZNqer2ItSsOgNp0ve4C-134">
          <mxCell style="verticalAlign=middle;align=center;overflow=width;vsdxID=21;fillColor=none;gradientColor=none;shape=stencil(nZBLDoAgDERP0z3SIyjew0SURgSD+Lu9kMZoXLhwN9O+tukAlrNpJg1SzDH4QW/URgNYgZTkjA4UkwJUgGXng+6DX1zLfmoymdXo17xh5zmRJ6Q42BWCfc2oJfdAr+Yv+AP9Cb7OJ3H/2JG1HNGz/84klThPVCc=);strokeColor=none;points=[];labelBackgroundColor=none;rounded=0;html=1;whiteSpace=wrap;" parent="1" vertex="1">
            <mxGeometry x="986.5" y="875" width="214" height="28" as="geometry" />
          </mxCell>
        </UserObject>
        <UserObject label="&lt;div style=&quot;font-size: 1px&quot;&gt;&lt;font style=&quot;font-size:16.93px;font-family:Calibri;color:#000000;direction:ltr;letter-spacing:0px;line-height:120%;opacity:1&quot;&gt;Legenda:&lt;br/&gt;&lt;/font&gt;&lt;/div&gt;" tags="Sfondo" id="kZNqer2ItSsOgNp0ve4C-135">
          <mxCell style="verticalAlign=middle;align=center;overflow=width;vsdxID=22;fillColor=none;gradientColor=none;shape=stencil(nZBLDoAgDERP0z3SIyjew0SURgSD+Lu9kMZoXLhwN9O+tukAlrNpJg1SzDH4QW/URgNYgZTkjA4UkwJUgGXng+6DX1zLfmoymdXo17xh5zmRJ6Q42BWCfc2oJfdAr+Yv+AP9Cb7OJ3H/2JG1HNGz/84klThPVCc=);strokeColor=none;points=[];labelBackgroundColor=none;rounded=0;html=1;whiteSpace=wrap;" parent="1" vertex="1">
            <mxGeometry x="938" y="772" width="214" height="28" as="geometry" />
          </mxCell>
        </UserObject>
        <UserObject label="" tags="Sfondo" id="kZNqer2ItSsOgNp0ve4C-136">
          <mxCell style="vsdxID=23;fillColor=none;gradientColor=none;shape=stencil(nZBLDoAgDERP0z3SIyjew0SURgSD+Lu9kMZoXLhwN9O+tukAlrNpJg1SzDH4QW/URgNYgZTkjA4UkwJUgGXng+6DX1zLfmoymdXo17xh5zmRJ6Q42BWCfc2oJfdAr+Yv+AP9Cb7OJ3H/2JG1HNGz/84klThPVCc=);strokeColor=#000000;points=[[1,0.5,0],[0.5,0,0],[0.5,0.5,0],[0.5,0.5,0]];labelBackgroundColor=none;rounded=0;html=1;whiteSpace=wrap;" parent="1" vertex="1">
            <mxGeometry x="945" y="774" width="229" height="366" as="geometry" />
          </mxCell>
        </UserObject>
        <UserObject label="" tags="Sfondo" id="kZNqer2ItSsOgNp0ve4C-137">
          <mxCell style="vsdxID=24;edgeStyle=none;startArrow=none;endArrow=open;startSize=5;endSize=5;strokeWidth=2;strokeColor=#000000;spacingTop=0;spacingBottom=0;spacingLeft=0;spacingRight=0;verticalAlign=middle;html=1;labelBackgroundColor=#ffffff;rounded=0;" parent="1" edge="1">
            <mxGeometry relative="1" as="geometry">
              <mxPoint as="offset" />
              <Array as="points" />
              <mxPoint x="956" y="934" as="sourcePoint" />
              <mxPoint x="1028" y="934" as="targetPoint" />
            </mxGeometry>
          </mxCell>
        </UserObject>
        <UserObject label="" tags="Sfondo" id="kZNqer2ItSsOgNp0ve4C-138">
          <mxCell style="vsdxID=25;edgeStyle=none;dashed=1;startArrow=none;endArrow=open;startSize=5;endSize=5;strokeWidth=2;strokeColor=#000000;spacingTop=0;spacingBottom=0;spacingLeft=0;spacingRight=0;verticalAlign=middle;html=1;labelBackgroundColor=#ffffff;rounded=0;" parent="1" edge="1">
            <mxGeometry relative="1" as="geometry">
              <mxPoint as="offset" />
              <Array as="points" />
              <mxPoint x="956" y="974" as="sourcePoint" />
              <mxPoint x="1028" y="974" as="targetPoint" />
            </mxGeometry>
          </mxCell>
        </UserObject>
        <UserObject label="&lt;div style=&quot;font-size: 1px&quot;&gt;&lt;font style=&quot;font-size:16.93px;font-family:Calibri;color:#000000;direction:ltr;letter-spacing:0px;line-height:120%;opacity:1&quot;&gt;Request&lt;br/&gt;&lt;/font&gt;&lt;/div&gt;" tags="Sfondo" id="kZNqer2ItSsOgNp0ve4C-139">
          <mxCell style="verticalAlign=middle;align=center;overflow=width;vsdxID=26;fillColor=none;gradientColor=none;shape=stencil(nZBLDoAgDERP0z3SIyjew0SURgSD+Lu9kMZoXLhwN9O+tukAlrNpJg1SzDH4QW/URgNYgZTkjA4UkwJUgGXng+6DX1zLfmoymdXo17xh5zmRJ6Q42BWCfc2oJfdAr+Yv+AP9Cb7OJ3H/2JG1HNGz/84klThPVCc=);strokeColor=none;points=[];labelBackgroundColor=none;rounded=0;html=1;whiteSpace=wrap;" parent="1" vertex="1">
            <mxGeometry x="989" y="920" width="214" height="28" as="geometry" />
          </mxCell>
        </UserObject>
        <UserObject label="&lt;div style=&quot;font-size: 1px&quot;&gt;&lt;font style=&quot;font-size:16.93px;font-family:Calibri;color:#000000;direction:ltr;letter-spacing:0px;line-height:120%;opacity:1&quot;&gt;Response&lt;br/&gt;&lt;/font&gt;&lt;/div&gt;" tags="Sfondo" id="kZNqer2ItSsOgNp0ve4C-140">
          <mxCell style="verticalAlign=middle;align=center;overflow=width;vsdxID=48;fillColor=none;gradientColor=none;shape=stencil(nZBLDoAgDERP0z3SIyjew0SURgSD+Lu9kMZoXLhwN9O+tukAlrNpJg1SzDH4QW/URgNYgZTkjA4UkwJUgGXng+6DX1zLfmoymdXo17xh5zmRJ6Q42BWCfc2oJfdAr+Yv+AP9Cb7OJ3H/2JG1HNGz/84klThPVCc=);strokeColor=none;points=[];labelBackgroundColor=none;rounded=0;html=1;whiteSpace=wrap;" parent="1" vertex="1">
            <mxGeometry x="1040" y="961.31" width="100" height="28" as="geometry" />
          </mxCell>
        </UserObject>
        <mxCell id="nOyLcocmXqzmwkCXaEq5-1" value="&lt;font style=&quot;font-size: 14px;&quot;&gt;B:storerequest&lt;/font&gt;" style="text;whiteSpace=wrap;html=1;" parent="1" vertex="1">
          <mxGeometry x="998" y="612" width="69" height="24" as="geometry" />
        </mxCell>
        <mxCell id="nOyLcocmXqzmwkCXaEq5-2" value="&lt;font style=&quot;font-size: 14px;&quot;&gt;D: loadDone&lt;/font&gt;" style="text;whiteSpace=wrap;html=1;" parent="1" vertex="1">
          <mxGeometry x="997.25" y="648" width="92.75" height="6" as="geometry" />
        </mxCell>
        <mxCell id="nOyLcocmXqzmwkCXaEq5-6" value="&lt;font style=&quot;font-size: 14px;&quot;&gt;A:getweight&lt;/font&gt;" style="text;html=1;align=center;verticalAlign=middle;whiteSpace=wrap;rounded=0;" parent="1" vertex="1">
          <mxGeometry x="1006" y="596" width="60" height="20" as="geometry" />
        </mxCell>
        <mxCell id="nOyLcocmXqzmwkCXaEq5-7" value="&lt;font style=&quot;font-size: 14px;&quot;&gt;C: verifyticket&lt;/font&gt;" style="text;html=1;align=center;verticalAlign=middle;whiteSpace=wrap;rounded=0;" parent="1" vertex="1">
          <mxGeometry x="997" y="639" width="88" height="10" as="geometry" />
        </mxCell>
        <UserObject label="" tags="Sfondo" id="nOyLcocmXqzmwkCXaEq5-9">
          <mxCell style="vsdxID=53;edgeStyle=none;dashed=1;dashPattern=12.00 6.00;startArrow=none;endArrow=open;startSize=5;endSize=5;strokeWidth=2;strokeColor=#000000;spacingTop=0;spacingBottom=0;spacingLeft=0;spacingRight=0;verticalAlign=middle;html=1;labelBackgroundColor=#ffffff;rounded=0;exitX=0.044;exitY=0.982;exitDx=0;exitDy=0;exitPerimeter=0;" parent="1" source="kZNqer2ItSsOgNp0ve4C-52" edge="1">
            <mxGeometry relative="1" as="geometry">
              <Array as="points" />
              <mxPoint x="1100" y="690" as="sourcePoint" />
              <mxPoint x="960" y="690" as="targetPoint" />
            </mxGeometry>
          </mxCell>
        </UserObject>
        <mxCell id="nOyLcocmXqzmwkCXaEq5-10" value="&lt;font face=&quot;Helvetica&quot; style=&quot;font-size: 14px;&quot;&gt;R ad A:currentweight&lt;/font&gt;" style="text;html=1;align=center;verticalAlign=middle;whiteSpace=wrap;rounded=0;" parent="1" vertex="1">
          <mxGeometry x="982.25" y="693" width="144.75" height="20" as="geometry" />
        </mxCell>
        <UserObject label="&lt;div style=&quot;&quot;&gt;&lt;font style=&quot;color: rgb(0, 0, 0); direction: ltr; letter-spacing: 0px; line-height: 120%; opacity: 1;&quot;&gt;&lt;font face=&quot;Helvetica&quot; style=&quot;font-size: 14px;&quot;&gt;R a D:goaway/depositfailed&lt;/font&gt;&lt;br&gt;&lt;/font&gt;&lt;/div&gt;" tags="Sfondo" id="nOyLcocmXqzmwkCXaEq5-11">
          <mxCell style="verticalAlign=middle;align=center;overflow=width;vsdxID=54;fillColor=none;gradientColor=none;shape=stencil(nZBLDoAgDERP0z3SIyjew0SURgSD+Lu9kMZoXLhwN9O+tukAlrNpJg1SzDH4QW/URgNYgZTkjA4UkwJUgGXng+6DX1zLfmoymdXo17xh5zmRJ6Q42BWCfc2oJfdAr+Yv+AP9Cb7OJ3H/2JG1HNGz/84klThPVCc=);strokeColor=none;points=[];labelBackgroundColor=none;rounded=0;html=1;whiteSpace=wrap;" parent="1" vertex="1">
            <mxGeometry x="984" y="742.25" width="182" height="17.5" as="geometry" />
          </mxCell>
        </UserObject>
        <UserObject label="&lt;div style=&quot;&quot;&gt;&lt;font style=&quot;color: rgb(0, 0, 0); direction: ltr; letter-spacing: 0px; line-height: 120%; opacity: 1;&quot;&gt;&lt;font face=&quot;Helvetica&quot; style=&quot;font-size: 14px;&quot;&gt;R a B: loadaccepted/loadrejected&lt;/font&gt;&lt;br&gt;&lt;/font&gt;&lt;/div&gt;" tags="Sfondo" id="nOyLcocmXqzmwkCXaEq5-12">
          <mxCell style="verticalAlign=middle;align=center;overflow=width;vsdxID=41;fillColor=none;gradientColor=none;shape=stencil(nZBLDoAgDERP0z3SIyjew0SURgSD+Lu9kMZoXLhwN9O+tukAlrNpJg1SzDH4QW/URgNYgZTkjA4UkwJUgGXng+6DX1zLfmoymdXo17xh5zmRJ6Q42BWCfc2oJfdAr+Yv+AP9Cb7OJ3H/2JG1HNGz/84klThPVCc=);strokeColor=none;points=[];labelBackgroundColor=none;rounded=0;html=1;whiteSpace=wrap;" parent="1" vertex="1">
            <mxGeometry x="984.25" y="713.5" width="215.75" height="15" as="geometry" />
          </mxCell>
        </UserObject>
        <mxCell id="nOyLcocmXqzmwkCXaEq5-13" value="&lt;font face=&quot;Helvetica&quot; style=&quot;font-size: 14px;&quot;&gt;&lt;font style=&quot;&quot;&gt;R a C: chargetaken/&lt;/font&gt;&lt;span style=&quot;background-color: initial;&quot;&gt;invalidticket&lt;/span&gt;&lt;/font&gt;" style="text;html=1;align=center;verticalAlign=middle;whiteSpace=wrap;rounded=0;" parent="1" vertex="1">
          <mxGeometry x="988" y="726.5" width="200" height="18" as="geometry" />
        </mxCell>
        <UserObject label="" tags="Sfondo" id="nOyLcocmXqzmwkCXaEq5-14">
          <mxCell style="vsdxID=64;fillColor=none;gradientColor=none;shape=stencil(vVHLDsIgEPwajiQU4hfU+h8bu7RELM2CFv9eyMZYjCcP3mZ2Zh/ZEaaPM6wotIqJwgU3N6ZZmKPQ2i0zkksFCTMI09tAOFG4LSPzFaqzomu41wmZ+1Tt0OrB7MD0xE6gc5EoN5qi1vsa1Kmvo1SWkF2UFBIkF5ZmqweaUJY10nqYGiluiOuu3P182P/OKuD9Zuu855T2+mcspcSRmuEJ);strokeColor=#f96;strokeWidth=3;points=[[0.5,0,0],[0.5,0.5,0],[0.5,0.5,0],[0.5,0.5,0],[1,0.5,0]];labelBackgroundColor=none;rounded=0;html=1;whiteSpace=wrap;" parent="1" vertex="1">
            <mxGeometry x="961" y="1000" width="69" height="50" as="geometry" />
          </mxCell>
        </UserObject>
        <UserObject label="" tags="Sfondo" id="nOyLcocmXqzmwkCXaEq5-16">
          <mxCell style="vsdxID=6;fillColor=#305497;gradientColor=none;shape=stencil(nZBLDoAgDERP0z3SIyjew0SURgSD+Lu9kMZoXLhwN9O+tukAlrNpJg1SzDH4QW/URgNYgZTkjA4UkwJUgGXng+6DX1zLfmoymdXo17xh5zmRJ6Q42BWCfc2oJfdAr+Yv+AP9Cb7OJ3H/2JG1HNGz/84klThPVCc=);strokeColor=#305497;points=[[1,0.5,0],[0.5,0,0],[0.5,0.5,0],[0.5,0.5,0]];labelBackgroundColor=none;rounded=0;html=1;whiteSpace=wrap;" parent="1" vertex="1">
            <mxGeometry x="953" y="1017.5" width="17" height="5" as="geometry" />
          </mxCell>
        </UserObject>
        <UserObject label="" tags="Sfondo" id="nOyLcocmXqzmwkCXaEq5-17">
          <mxCell style="vsdxID=5;rotation=270;fillColor=#305497;gradientColor=none;shape=stencil(UzV2Ls5ILEhVNTIoLinKz04tz0wpyVA1dlE1MsrMy0gtyiwBslSNXVWNndPyi1LTi/JL81Ig/IJEkEoQKze/DGRCBUSfoYEBSI+RQSUq3w2iOCczD0mxKapaPCpJMJSAC4AMhNvTMnNyIF5Hlkf3K1AIEk7GrgA=);strokeColor=#305497;points=[[0.5,0.67,0],[1,0.67,0],[0.5,0,0]];labelBackgroundColor=none;rounded=0;html=1;whiteSpace=wrap;" parent="1" vertex="1">
            <mxGeometry x="990.93" y="989.31" width="11.13" height="17.5" as="geometry" />
          </mxCell>
        </UserObject>
        <mxCell id="nOyLcocmXqzmwkCXaEq5-19" value="&lt;font face=&quot;Calibri&quot; style=&quot;font-size: 16px;&quot;&gt;UFO Actor&amp;nbsp;&lt;/font&gt;" style="text;html=1;align=center;verticalAlign=middle;whiteSpace=wrap;rounded=0;" parent="1" vertex="1">
          <mxGeometry x="1059.25" y="1005" width="90.75" height="30" as="geometry" />
        </mxCell>
        <UserObject label="" tags="Sfondo" id="nOyLcocmXqzmwkCXaEq5-20">
          <mxCell style="vsdxID=4;fillColor=none;gradientColor=none;shape=stencil(vVHLDsIgEPwajiQU4hfU+h8bu7RELM2CFv9eyMZYjCcP3mZ2Zh/ZEaaPM6wotIqJwgU3N6ZZmKPQ2i0zkksFCTMI09tAOFG4LSPzFaqzomu41wmZ+1Tt0OrB7MD0xE6gc5EoN5qi1vsa1Kmvo1SWkF2UFBIkF5ZmqweaUJY10nqYGiluiOuu3P182P/OKuD9Zuu855T2+mcspcSRmuEJ);strokeColor=#4c9141;strokeWidth=3;points=[[0.5,0,0],[0.5,0.5,0],[0.5,0.5,0],[0.5,0.5,0],[1,0.5,0]];labelBackgroundColor=none;rounded=0;html=1;whiteSpace=wrap;" parent="1" vertex="1">
            <mxGeometry x="963" y="1070" width="67" height="50" as="geometry" />
          </mxCell>
        </UserObject>
        <UserObject label="" tags="Sfondo" id="nOyLcocmXqzmwkCXaEq5-21">
          <mxCell style="vsdxID=5;rotation=270;fillColor=#305497;gradientColor=none;shape=stencil(UzV2Ls5ILEhVNTIoLinKz04tz0wpyVA1dlE1MsrMy0gtyiwBslSNXVWNndPyi1LTi/JL81Ig/IJEkEoQKze/DGRCBUSfoYEBSI+RQSUq3w2iOCczD0mxKapaPCpJMJSAC4AMhNvTMnNyIF5Hlkf3K1AIEk7GrgA=);strokeColor=#305497;points=[[0.5,0.67,0],[1,0.67,0],[0.5,0,0]];labelBackgroundColor=none;rounded=0;html=1;whiteSpace=wrap;" parent="1" vertex="1">
            <mxGeometry x="989.935" y="1059.9950000000001" width="11.13" height="17.5" as="geometry" />
          </mxCell>
        </UserObject>
        <UserObject label="" tags="Sfondo" id="nOyLcocmXqzmwkCXaEq5-22">
          <mxCell style="vsdxID=6;fillColor=#305497;gradientColor=none;shape=stencil(nZBLDoAgDERP0z3SIyjew0SURgSD+Lu9kMZoXLhwN9O+tukAlrNpJg1SzDH4QW/URgNYgZTkjA4UkwJUgGXng+6DX1zLfmoymdXo17xh5zmRJ6Q42BWCfc2oJfdAr+Yv+AP9Cb7OJ3H/2JG1HNGz/84klThPVCc=);strokeColor=#305497;points=[[1,0.5,0],[0.5,0,0],[0.5,0.5,0],[0.5,0.5,0]];labelBackgroundColor=none;rounded=0;html=1;whiteSpace=wrap;" parent="1" vertex="1">
            <mxGeometry x="954" y="1092.5" width="17" height="5" as="geometry" />
          </mxCell>
        </UserObject>
        <mxCell id="nOyLcocmXqzmwkCXaEq5-23" value="&lt;pre style=&quot;color: rgb(255, 255, 255); text-align: start; overflow-wrap: break-word; text-wrap: wrap;&quot;&gt;ExternalQActor&lt;/pre&gt;" style="text;html=1;align=center;verticalAlign=middle;whiteSpace=wrap;rounded=0;" parent="1" vertex="1">
          <mxGeometry x="1210" y="1040" width="120" height="30" as="geometry" />
        </mxCell>
        <mxCell id="nOyLcocmXqzmwkCXaEq5-26" value="&lt;font face=&quot;Calibri&quot; style=&quot;font-size: 16px;&quot;&gt;ExternalQActor&lt;/font&gt;" style="text;html=1;align=center;verticalAlign=middle;whiteSpace=wrap;rounded=0;" parent="1" vertex="1">
          <mxGeometry x="1053.5" y="1080" width="87.5" height="30" as="geometry" />
        </mxCell>
      </root>
    </mxGraphModel>
  </diagram>
</mxfile>
